<svg width="29" height="29" viewBox="0 0 29 29" fill="none" xmlns="http://www.w3.org/2000/svg">
<path d="M22.7498 21.8278H9.25383C8.8245 21.8278 8.44183 21.6925 8.10583 21.4218C7.76983 21.1511 7.5645 20.8011 7.48983 20.3718L4.57783 4.3278H2.64583C2.40317 4.3278 2.19783 4.2438 2.02983 4.0758C1.86183 3.9078 1.77783 3.6978 1.77783 3.4458C1.77783 3.1938 1.86183 2.9838 2.02983 2.8158C2.19783 2.6478 2.40317 2.5638 2.64583 2.5638H4.60583C5.03517 2.5638 5.4085 2.69913 5.72583 2.9698C6.04317 3.24047 6.23917 3.58113 6.31383 3.9918L9.25383 20.0638H22.7498C22.9925 20.0638 23.1978 20.1478 23.3658 20.3158C23.5338 20.4838 23.6225 20.6938 23.6318 20.9458C23.6412 21.1978 23.5572 21.4078 23.3798 21.5758C23.2025 21.7438 22.9925 21.8278 22.7498 21.8278ZM9.64583 26.1958C9.08583 26.1958 8.5725 26.0605 8.10583 25.7898C7.63917 25.5191 7.26583 25.1458 6.98583 24.6698C6.70583 24.1938 6.5705 23.6805 6.57983 23.1298C6.58917 22.5791 6.72917 22.0658 6.99983 21.5898C7.2705 21.1138 7.63917 20.7405 8.10583 20.4698C8.5725 20.1991 9.08583 20.0638 9.64583 20.0638C10.2058 20.0638 10.7192 20.1991 11.1858 20.4698C11.6525 20.7405 12.0258 21.1138 12.3058 21.5898C12.5858 22.0658 12.7258 22.5791 12.7258 23.1298C12.7258 23.6805 12.5858 24.1938 12.3058 24.6698C12.0258 25.1458 11.6525 25.5191 11.1858 25.7898C10.7192 26.0605 10.2058 26.1958 9.64583 26.1958ZM9.64583 21.8278C9.3845 21.7905 9.13717 21.8231 8.90383 21.9258C8.6705 22.0285 8.48383 22.1918 8.34383 22.4158C8.20383 22.6398 8.13383 22.8778 8.13383 23.1298C8.13383 23.3818 8.20383 23.6198 8.34383 23.8438C8.48383 24.0678 8.6705 24.2311 8.90383 24.3338C9.13717 24.4365 9.3845 24.4691 9.64583 24.4318C9.96317 24.3758 10.2292 24.2265 10.4438 23.9838C10.6585 23.7411 10.7658 23.4565 10.7658 23.1298C10.7658 22.8031 10.6585 22.5185 10.4438 22.2758C10.2292 22.0331 9.96317 21.8838 9.64583 21.8278ZM22.7498 26.1958C22.1898 26.1958 21.6765 26.0605 21.2098 25.7898C20.7432 25.5191 20.3745 25.1458 20.1038 24.6698C19.8332 24.1938 19.6978 23.6805 19.6978 23.1298C19.6978 22.5791 19.8332 22.0658 20.1038 21.5898C20.3745 21.1138 20.7432 20.7405 21.2098 20.4698C21.6765 20.1991 22.1898 20.0638 22.7498 20.0638C23.3098 20.0638 23.8232 20.1991 24.2898 20.4698C24.7565 20.7405 25.1252 21.1138 25.3958 21.5898C25.6665 22.0658 25.8018 22.5791 25.8018 23.1298C25.8018 23.6805 25.6665 24.1938 25.3958 24.6698C25.1252 25.1458 24.7565 25.5191 24.2898 25.7898C23.8232 26.0605 23.3098 26.1958 22.7498 26.1958ZM22.7498 21.8278C22.4885 21.7905 22.2412 21.8231 22.0078 21.9258C21.7745 22.0285 21.5878 22.1918 21.4478 22.4158C21.3078 22.6398 21.2378 22.8778 21.2378 23.1298C21.2378 23.3818 21.3078 23.6198 21.4478 23.8438C21.5878 24.0678 21.7745 24.2311 22.0078 24.3338C22.2412 24.4365 22.4885 24.4691 22.7498 24.4318C23.0672 24.3758 23.3332 24.2265 23.5478 23.9838C23.7625 23.7411 23.8698 23.4565 23.8698 23.1298C23.8698 22.8031 23.7625 22.5185 23.5478 22.2758C23.3332 22.0331 23.0672 21.8838 22.7498 21.8278ZM23.7858 18.3278H7.88183C7.63917 18.3278 7.42917 18.2438 7.25183 18.0758C7.0745 17.9078 6.9905 17.6978 6.99983 17.4458C7.00917 17.1938 7.09783 16.9838 7.26583 16.8158C7.43383 16.6478 7.63917 16.5638 7.88183 16.5638H23.7858L25.2138 8.6958H6.14583C5.90317 8.6958 5.69317 8.6118 5.51583 8.4438C5.3385 8.2758 5.2545 8.0658 5.26383 7.8138C5.27317 7.5618 5.36183 7.3518 5.52983 7.1838C5.69783 7.0158 5.90317 6.9318 6.14583 6.9318H25.2138C25.4752 6.9318 25.7225 6.9878 25.9558 7.0998C26.1892 7.2118 26.3898 7.3658 26.5578 7.5618C26.7258 7.7578 26.8378 7.9818 26.8938 8.2338C26.9498 8.4858 26.9498 8.74247 26.8938 9.0038L25.4658 16.8718C25.4098 17.2825 25.2185 17.6231 24.8918 17.8938C24.5652 18.1645 24.1965 18.3091 23.7858 18.3278Z" fill="#2D2D2D"/>
</svg>
