<svg width="21" height="21" viewBox="0 0 21 21" fill="none" xmlns="http://www.w3.org/2000/svg">
<path d="M10.5196 18.3335C10.4129 18.3335 10.3129 18.3068 10.2196 18.2535L10.1996 18.2335C9.41294 17.7802 8.61961 17.2535 7.81961 16.6535C6.27294 15.4802 5.01961 14.2735 4.05961 13.0335C2.75294 11.3268 2.09961 9.6535 2.09961 8.0135C2.09961 7.18683 2.29961 6.41683 2.69961 5.7035C3.09961 4.99016 3.65294 4.42016 4.35961 3.9935C5.06628 3.56683 5.83294 3.3435 6.65961 3.3235C7.48628 3.3035 8.25961 3.48683 8.97961 3.8735C9.59294 4.1935 10.1063 4.6335 10.5196 5.1935C10.9329 4.6335 11.4529 4.1935 12.0796 3.8735C12.7996 3.48683 13.5696 3.30683 14.3896 3.3335C15.2096 3.36016 15.9729 3.5835 16.6796 4.0035C17.3863 4.4235 17.9396 4.9935 18.3396 5.7135C18.7396 6.4335 18.9396 7.20016 18.9396 8.0135C18.9396 9.62683 18.3063 11.2735 17.0396 12.9535C16.1063 14.1802 14.8796 15.3735 13.3596 16.5335C12.5596 17.1468 11.7396 17.7068 10.8996 18.2135L10.8196 18.2535C10.7263 18.3068 10.6263 18.3335 10.5196 18.3335ZM6.77961 4.5735C6.55294 4.5735 6.32628 4.60016 6.09961 4.6535C5.56628 4.76016 5.09294 4.97683 4.67961 5.3035C4.26628 5.63016 3.93961 6.03016 3.69961 6.5035C3.45961 6.97683 3.33961 7.48016 3.33961 8.0135C3.33961 9.30683 3.85961 10.6535 4.89961 12.0535C5.67294 13.1202 6.71961 14.1802 8.03961 15.2335C8.87961 15.9002 9.70628 16.4802 10.5196 16.9735C11.3596 16.4668 12.1929 15.8868 13.0196 15.2335C14.3396 14.1802 15.3863 13.1202 16.1596 12.0535C17.1996 10.6535 17.7196 9.30683 17.7196 8.0135C17.7196 7.4135 17.5696 6.85016 17.2696 6.3235C16.9696 5.79683 16.5629 5.37683 16.0496 5.0635C15.5363 4.75016 14.9763 4.58683 14.3696 4.5735C13.7629 4.56016 13.1929 4.6935 12.6596 4.9735C12.3129 5.16016 12.0063 5.40016 11.7396 5.6935C11.4729 5.98683 11.2596 6.32016 11.0996 6.6935C11.0463 6.8135 10.9696 6.90683 10.8696 6.9735C10.7696 7.04016 10.6563 7.0735 10.5296 7.0735C10.4029 7.0735 10.2896 7.04016 10.1896 6.9735C10.0896 6.90683 10.0129 6.8135 9.95961 6.6935C9.69294 6.0535 9.26961 5.54016 8.68961 5.1535C8.10961 4.76683 7.47294 4.5735 6.77961 4.5735Z" fill="#969696"/>
</svg>
