<svg width="25" height="24" viewBox="0 0 25 24" fill="none" xmlns="http://www.w3.org/2000/svg">
<path d="M10.9519 19.4881C9.39986 19.4881 7.95186 19.0961 6.60786 18.3121C5.31186 17.5441 4.28786 16.5121 3.53586 15.2161C2.75186 13.8721 2.35986 12.4201 2.35986 10.8601C2.35986 9.30014 2.75186 7.84814 3.53586 6.50414C4.30386 5.20814 5.33586 4.18414 6.63186 3.43214C7.97586 2.64814 9.42786 2.25614 10.9879 2.25614C12.5479 2.25614 13.9919 2.64814 15.3199 3.43214C16.6319 4.20014 17.6639 5.23214 18.4159 6.52814C19.1999 7.87214 19.5919 9.32414 19.5919 10.8841C19.5919 12.4441 19.1999 13.8881 18.4159 15.2161C17.6479 16.5121 16.6079 17.5441 15.2959 18.3121C13.9679 19.0961 12.5199 19.4881 10.9519 19.4881ZM10.9519 3.74414C9.65586 3.74414 8.45586 4.07214 7.35186 4.72814C6.27986 5.35214 5.43186 6.20014 4.80786 7.27214C4.15186 8.37614 3.82386 9.57614 3.82386 10.8721C3.82386 12.1681 4.15186 13.3681 4.80786 14.4721C5.43186 15.5441 6.27986 16.3921 7.35186 17.0161C8.45586 17.6721 9.65586 18.0001 10.9519 18.0001C12.2479 18.0001 13.4479 17.6721 14.5519 17.0161C15.6239 16.3921 16.4719 15.5441 17.0959 14.4721C17.7519 13.3681 18.0799 12.1681 18.0799 10.8721C18.0799 9.57614 17.7519 8.37614 17.0959 7.27214C16.4719 6.20014 15.6239 5.35214 14.5519 4.72814C13.4479 4.07214 12.2479 3.74414 10.9519 3.74414ZM21.0799 21.7441C20.8719 21.7441 20.6959 21.6721 20.5519 21.5281L15.9919 16.9681C15.8959 16.8881 15.8239 16.7841 15.7759 16.6561C15.7279 16.5281 15.7159 16.4001 15.7399 16.2721C15.7639 16.1441 15.8159 16.0281 15.8959 15.9241C15.9759 15.8201 16.0839 15.7401 16.2199 15.6841C16.3559 15.6281 16.5039 15.6201 16.6639 15.6601C16.8239 15.7001 16.9519 15.7841 17.0479 15.9121L21.6079 20.4721C21.7199 20.5841 21.7879 20.7121 21.8119 20.8561C21.8359 21.0001 21.8199 21.1441 21.7639 21.2881C21.7079 21.4321 21.6159 21.5441 21.4879 21.6241C21.3599 21.7041 21.2239 21.7441 21.0799 21.7441Z" fill="white"/>
</svg>
